# xmcd
#
# Track frame offsets:
#	150
#	19851
#	41533
#	69433
#	103275
#	124202
#	144340
#	172323
#	195398
#
# Disc length: 2926 seconds
#
# Revision: 1270956646
# Processed by: cddbd v1.5.2PL0 Copyright (c) Steve Scherf et al.
# Submitted via: EZCDAudioConverter 8.0.2.1
#
DISCID=800b6c09
DTITLE=Nhật Thy - Vol 03. Cơn Mưa Phùn
DYEAR=2011
DGENRE=World Pop
TTITLE0=Nhật Thy - Ảo ảnh
TTITLE1=Nhật Thy, Kasim Hoàng Vũ - Mưa hồng
TTITLE2=Nhật Thy - Tình
TTITLE3=Nhật Thy - Niệm khúc cuối
TTITLE4=Nhật Thy, Kasim Hoàng Vũ - Thương nhau ngày mưa
TTITLE5=Nhật Thy - Tiếng mưa đêm
TTITLE6=Nhật Thy - Biển nhớ
TTITLE7=Nhật Thy, Kasim Hoàng Vũ - Xin một ngày có nhau
TTITLE8=Nhật Thy - Cơn Mưa Phùn
EXTD=
EXTT0=
EXTT1=
EXTT2=
EXTT3=
EXTT4=
EXTT5=
EXTT6=
EXTT7=
EXTT8=
PLAYORDER=
